<?xml version="1.0" encoding="UTF-8"?>
<svg id="Layer_1" data-name="Layer 1" xmlns="http://www.w3.org/2000/svg" xmlns:xlink="http://www.w3.org/1999/xlink" viewBox="0 0 2000 545.97">
  <defs>
    <style>
      .cls-1 {
        fill: url(#linear-gradient-2);
      }

      .cls-2 {
        fill: #161619;
      }

      .cls-3 {
        fill: url(#linear-gradient);
      }
    </style>
    <linearGradient id="linear-gradient" x1="233.22" y1="414.56" x2="149.31" y2="184.62" gradientUnits="userSpaceOnUse">
      <stop offset="0" stop-color="#501de1"/>
      <stop offset=".07" stop-color="#5e21e6"/>
      <stop offset=".25" stop-color="#7c2af2"/>
      <stop offset=".4" stop-color="#8e30fa"/>
      <stop offset=".51" stop-color="#9532fd"/>
      <stop offset=".57" stop-color="#9030f7"/>
      <stop offset=".66" stop-color="#822be7"/>
      <stop offset=".75" stop-color="#6b23ce"/>
      <stop offset=".85" stop-color="#4c19a9"/>
      <stop offset=".96" stop-color="#240b7c"/>
      <stop offset="1" stop-color="#120567"/>
    </linearGradient>
    <linearGradient id="linear-gradient-2" x1="272.29" y1="143.13" x2="355.79" y2="371.93" xlink:href="#linear-gradient"/>
  </defs>
  <g>
    <g>
      <path class="cls-2" d="M232.5,158.73c-9.89,1.57-19.36,4.32-28.28,8.09-14.65-40.95-31.64-71.28-52.76-71.28-53.27,0-80.14,132.71-86.73,179.03l-29.18-3.49c2.53-20.99,27.03-204.91,115.91-204.91,38.04,0,61.87,38.71,81.04,92.55Z"/>
      <path class="cls-2" d="M474.3,274.15c-1.92,21.02-21.31,205.29-110.28,205.29-40.47,0-67.57-33.53-88.46-81.42,9.79-1.95,19.16-5.05,27.96-9.25,16.19,36.28,35.54,61.3,60.5,61.3,52.76,0,76.78-132.26,81.04-178.61l29.24,2.69Z"/>
    </g>
    <path class="cls-3" d="M233.01,264.01c12.73,47.32,25.63,95.34,42.55,134.02-7.71,1.54-15.68,2.34-23.83,2.34-67.15,0-121.57-54.42-121.57-121.57,0-50.29,30.52-93.45,74.06-111.97,10.56,29.37,19.93,64.21,28.79,97.19Z"/>
    <path class="cls-1" d="M373.3,278.79c0,48.63-28.54,90.57-69.78,109.99-16.6-37.24-29.78-86.38-42.17-132.38-9.28-34.52-18.36-68.34-28.86-97.67,6.27-.99,12.67-1.5,19.23-1.5,67.15,0,121.57,54.42,121.57,121.57Z"/>
  </g>
  <g>
    <path class="cls-2" d="M762.24,389.71c-22.22,0-41.15-3.85-56.81-11.55s-28.27-17.7-37.82-30.02c-9.55-12.32-16.55-25.68-20.99-40.08-4.45-14.4-6.66-28.32-6.66-41.73v-7.26c0-14.52,2.28-29.03,6.83-43.55,4.55-14.52,11.6-27.71,21.16-39.59,9.55-11.88,21.99-21.44,37.32-28.7,15.33-7.26,33.65-10.89,54.98-10.89s40.43,3.74,55.98,11.22c15.55,7.48,27.88,17.93,36.99,31.34,9.11,13.42,14.66,29.25,16.66,47.51h-33.32c-1.78-13.63-6.22-24.91-13.33-33.82-7.11-8.91-16.05-15.56-26.82-19.96-10.78-4.4-22.83-6.6-36.15-6.6-14.44,0-27.1,2.47-37.99,7.42-10.89,4.95-19.94,11.88-27.16,20.78-7.22,8.91-12.66,19.19-16.33,30.85-3.67,11.66-5.5,24.31-5.5,37.94s1.83,25.3,5.5,36.95c3.67,11.66,9.22,22,16.66,31.01,7.44,9.02,16.71,16.12,27.82,21.28,11.11,5.17,24.1,7.75,38.99,7.75,20.88,0,38.43-5.17,52.65-15.51,14.21-10.34,22.88-25.29,25.99-44.87h33.32c-2.22,16.5-7.83,31.56-16.83,45.2-9,13.64-21.44,24.53-37.32,32.66-15.89,8.13-35.15,12.21-57.81,12.21Z"/>
    <path class="cls-2" d="M982.26,389.71c-15.55,0-29.21-2.64-40.99-7.92-11.78-5.28-21.72-12.26-29.82-20.95-8.11-8.69-14.22-18.42-18.33-29.2-4.11-10.77-6.16-21.77-6.16-32.99v-5.94c0-11.22,2.11-22.27,6.33-33.16,4.22-10.89,10.44-20.67,18.66-29.36,8.22-8.69,18.21-15.61,29.99-20.78,11.77-5.17,25.21-7.75,40.32-7.75s28.54,2.59,40.32,7.75c11.77,5.17,21.77,12.1,29.99,20.78,8.22,8.69,14.44,18.48,18.66,29.36,4.22,10.89,6.33,21.94,6.33,33.16v5.94c0,11.22-2.06,22.22-6.16,32.99-4.11,10.78-10.22,20.51-18.33,29.2-8.11,8.69-18.05,15.67-29.82,20.95-11.78,5.28-25.44,7.92-40.99,7.92ZM982.26,361.33c13.33,0,24.71-2.91,34.15-8.74,9.44-5.83,16.66-13.69,21.66-23.59,5-9.9,7.5-21,7.5-33.32s-2.56-23.75-7.66-33.65c-5.11-9.9-12.39-17.7-21.83-23.42-9.44-5.72-20.72-8.58-33.82-8.58s-24.11,2.86-33.65,8.58c-9.55,5.72-16.88,13.53-21.99,23.42-5.11,9.9-7.66,21.12-7.66,33.65s2.5,23.42,7.5,33.32c5,9.9,12.21,17.76,21.66,23.59,9.44,5.83,20.83,8.74,34.15,8.74Z"/>
    <path class="cls-2" d="M1103.09,383.77v-176.18h25.32v75.55h-4c0-17.37,2.38-32.05,7.16-44.04,4.77-11.99,12.05-21.11,21.83-27.38,9.77-6.27,22.1-9.4,36.99-9.4h1.33c22.44,0,39.04,6.93,49.82,20.78,10.77,13.86,16.16,33.87,16.16,60.05v100.62h-31.99v-107.22c0-13.63-3.89-24.58-11.66-32.83-7.78-8.25-18.44-12.37-31.99-12.37s-25.32,4.29-33.99,12.87-13,20.02-13,34.31v105.24h-31.99Z"/>
    <path class="cls-2" d="M1325.74,383.77l-60.65-176.18h33.32l59.31,176.18h-31.99ZM1333.74,383.77v-25.07h38.65v25.07h-38.65ZM1349.07,383.77l51.65-176.18h31.32l-52.65,176.18h-30.32Z"/>
    <path class="cls-2" d="M1529.07,389.71c-15.55,0-29.21-2.64-40.99-7.92-11.78-5.28-21.72-12.26-29.82-20.95-8.11-8.69-14.22-18.42-18.33-29.2-4.11-10.77-6.16-21.77-6.16-32.99v-5.94c0-11.22,2.11-22.27,6.33-33.16,4.22-10.89,10.44-20.67,18.66-29.36,8.22-8.69,18.21-15.61,29.99-20.78,11.77-5.17,25.21-7.75,40.32-7.75s28.54,2.59,40.32,7.75c11.77,5.17,21.77,12.1,29.99,20.78,8.22,8.69,14.44,18.48,18.66,29.36,4.22,10.89,6.33,21.94,6.33,33.16v5.94c0,11.22-2.06,22.22-6.16,32.99-4.11,10.78-10.22,20.51-18.33,29.2-8.11,8.69-18.05,15.67-29.82,20.95-11.78,5.28-25.44,7.92-40.99,7.92ZM1529.07,361.33c13.33,0,24.71-2.91,34.15-8.74,9.44-5.83,16.66-13.69,21.66-23.59,5-9.9,7.5-21,7.5-33.32s-2.56-23.75-7.66-33.65c-5.11-9.9-12.39-17.7-21.83-23.42-9.44-5.72-20.72-8.58-33.82-8.58s-24.11,2.86-33.65,8.58c-9.55,5.72-16.88,13.53-21.99,23.42-5.11,9.9-7.66,21.12-7.66,33.65s2.5,23.42,7.5,33.32c5,9.9,12.21,17.76,21.66,23.59,9.44,5.83,20.83,8.74,34.15,8.74Z"/>
    <path class="cls-2" d="M1633.93,383.77v-35.3l96.97-115.14v5.28l-5.33-7.92,4.33,1.98h-97.3v-25.07h126.62v35.3l-96.97,115.14v-4.62l6,8.25-4.66-2.97h100.96v25.07h-130.62Z"/>
    <path class="cls-2" d="M1857.92,389.71c-15.55,0-28.99-2.64-40.32-7.92-11.33-5.28-20.55-12.26-27.66-20.95-7.11-8.69-12.39-18.42-15.83-29.2-3.45-10.77-5.17-21.77-5.17-32.99v-5.94c0-11.43,1.72-22.54,5.17-33.32,3.44-10.77,8.72-20.51,15.83-29.2,7.11-8.69,16.16-15.61,27.16-20.78,11-5.17,23.93-7.75,38.82-7.75,19.33,0,35.26,4.12,47.82,12.37,12.55,8.25,21.88,18.86,27.99,31.84,6.11,12.98,9.16,26.84,9.16,41.57v14.19h-157.94v-23.75h134.62l-7.33,12.87c0-12.54-2-23.37-6-32.5-4-9.12-10-16.22-17.99-21.28-8-5.06-18.11-7.59-30.32-7.59s-23.16,2.86-31.49,8.58c-8.33,5.72-14.55,13.53-18.66,23.42-4.11,9.9-6.16,21.34-6.16,34.31s2.05,23.81,6.16,33.82c4.11,10.01,10.5,17.93,19.16,23.75,8.66,5.83,19.66,8.74,32.99,8.74,14,0,25.38-3.08,34.15-9.24,8.77-6.16,14.05-13.31,15.83-21.45h29.99c-2.45,12.1-7.33,22.55-14.66,31.34-7.33,8.8-16.55,15.51-27.66,20.12-11.11,4.62-23.66,6.93-37.65,6.93Z"/>
  </g>
</svg>